<svg version="1.1" viewBox="0.0 0.0 960.0 720.0" fill="none" stroke="none" stroke-linecap="square" stroke-miterlimit="10" xmlns:xlink="http://www.w3.org/1999/xlink" xmlns="http://www.w3.org/2000/svg"><clipPath id="p.0"><path d="m0 0l960.0 0l0 720.0l-960.0 0l0 -720.0z" clip-rule="nonzero"/></clipPath><g clip-path="url(#p.0)"><path fill="#000000" fill-opacity="0.0" d="m0 0l960.0 0l0 720.0l-960.0 0z" fill-rule="evenodd"/><path fill="#efefef" d="m318.47507 164.18636l145.35434 0l0 156.25197l-145.35434 0z" fill-rule="evenodd"/><path stroke="#000000" stroke-width="1.0" stroke-linejoin="round" stroke-linecap="butt" d="m318.47507 164.18636l145.35434 0l0 156.25197l-145.35434 0z" fill-rule="evenodd"/><path fill="#efefef" d="m327.47507 184.81233l75.612305 0l0 16.800003l-75.612305 0l0 -16.800003z" fill-rule="nonzero"/><path fill="#000000" fill-opacity="0.0" d="m327.47507 186.59706l75.612305 0l0 15.859375l-75.612305 0l0 -15.859375z" fill-rule="nonzero"/><path fill="#000000" d="m329.06882 192.33046l0 0.578125q0.71875 -0.78125 1.46875 -0.78125q0.4375 0 0.765625 0.234375q0.34375 0.234375 0.5625 0.71875q0.390625 -0.484375 0.78125 -0.71875q0.390625 -0.234375 0.796875 -0.234375q0.609375 0 0.984375 0.40625q0.484375 0.515625 0.484375 1.125l0 4.015625l0.484375 0q0.203125 0 0.296875 0.078125q0.09375 0.078125 0.09375 0.21875q0 0.109375 -0.09375 0.203125q-0.09375 0.078125 -0.296875 0.078125l-1.0625 0l0 -4.53125q0 -0.4375 -0.265625 -0.71875q-0.265625 -0.296875 -0.609375 -0.296875q-0.3125 0 -0.671875 0.234375q-0.34375 0.234375 -0.78125 0.9375l0 3.796875l0.46875 0q0.203125 0 0.296875 0.078125q0.09375 0.078125 0.09375 0.21875q0 0.109375 -0.09375 0.203125q-0.09375 0.078125 -0.296875 0.078125l-1.0625 0l0 -4.484375q0 -0.46875 -0.265625 -0.765625q-0.265625 -0.296875 -0.609375 -0.296875q-0.296875 0 -0.59375 0.203125q-0.421875 0.28125 -0.875 0.96875l0 3.796875l0.484375 0q0.203125 0 0.28125 0.078125q0.09375 0.078125 0.09375 0.21875q0 0.109375 -0.09375 0.203125q-0.078125 0.078125 -0.28125 0.078125l-1.546875 0q-0.203125 0 -0.296875 -0.078125q-0.09375 -0.09375 -0.09375 -0.203125q0 -0.140625 0.09375 -0.21875q0.09375 -0.078125 0.296875 -0.078125l0.484375 0l0 -4.765625l-0.484375 0q-0.203125 0 -0.296875 -0.078125q-0.09375 -0.078125 -0.09375 -0.21875q0 -0.109375 0.09375 -0.1875q0.09375 -0.09375 0.296875 -0.09375l1.0625 0zm14.213867 2.96875q0 1.3125 -0.9375 2.25q-0.9375 0.921875 -2.265625 0.921875q-1.34375 0 -2.28125 -0.921875q-0.9375 -0.9375 -0.9375 -2.25q0 -1.3125 0.9375 -2.234375q0.9375 -0.9375 2.28125 -0.9375q1.328125 0 2.265625 0.9375q0.9375 0.921875 0.9375 2.234375zm-0.578125 0q0 -1.078125 -0.765625 -1.828125q-0.765625 -0.765625 -1.859375 -0.765625q-1.09375 0 -1.875 0.765625q-0.765625 0.765625 -0.765625 1.828125q0 1.078125 0.765625 1.84375q0.78125 0.765625 1.875 0.765625q1.09375 0 1.859375 -0.765625q0.765625 -0.765625 0.765625 -1.84375zm8.588867 -5.625l0 8.0l0.765625 0q0.203125 0 0.296875 0.078125q0.09375 0.078125 0.09375 0.21875q0 0.109375 -0.09375 0.203125q-0.09375 0.078125 -0.296875 0.078125l-1.34375 0l0 -1.140625q-1.0 1.359375 -2.546875 1.359375q-0.765625 0 -1.484375 -0.40625q-0.71875 -0.421875 -1.140625 -1.1875q-0.40625 -0.765625 -0.40625 -1.578125q0 -0.8125 0.40625 -1.578125q0.421875 -0.765625 1.140625 -1.171875q0.71875 -0.421875 1.5 -0.421875q1.5 0 2.53125 1.359375l0 -3.234375l-0.765625 0q-0.21875 0 -0.3125 -0.078125q-0.078125 -0.078125 -0.078125 -0.21875q0 -0.125 0.078125 -0.203125q0.09375 -0.078125 0.3125 -0.078125l1.34375 0zm-0.578125 5.625q0 -1.09375 -0.75 -1.84375q-0.734375 -0.75 -1.75 -0.75q-1.03125 0 -1.765625 0.75q-0.734375 0.75 -0.734375 1.84375q0 1.09375 0.734375 1.859375q0.734375 0.75 1.765625 0.75q1.015625 0 1.75 -0.75q0.75 -0.765625 0.75 -1.859375zm9.276367 0.125l-5.859375 0q0.15625 1.125 0.9375 1.8125q0.78125 0.671875 1.9375 0.671875q0.640625 0 1.34375 -0.203125q0.703125 -0.21875 1.15625 -0.578125q0.125 -0.09375 0.21875 -0.09375q0.109375 0 0.1875 0.09375q0.09375 0.078125 0.09375 0.1875q0 0.109375 -0.109375 0.21875q-0.328125 0.34375 -1.171875 0.640625q-0.84375 0.296875 -1.71875 0.296875q-1.484375 0 -2.46875 -0.953125q-0.984375 -0.96875 -0.984375 -2.34375q0 -1.25 0.921875 -2.140625q0.9375 -0.90625 2.296875 -0.90625q1.40625 0 2.3125 0.921875q0.921875 0.921875 0.90625 2.375zm-0.578125 -0.578125q-0.171875 -0.953125 -0.90625 -1.546875q-0.734375 -0.59375 -1.734375 -0.59375q-1.0 0 -1.734375 0.59375q-0.71875 0.578125 -0.890625 1.546875l5.265625 0zm6.151367 -5.171875l0 8.0l2.265625 0q0.203125 0 0.296875 0.078125q0.09375 0.078125 0.09375 0.21875q0 0.109375 -0.09375 0.203125q-0.09375 0.078125 -0.296875 0.078125l-5.09375 0q-0.203125 0 -0.296875 -0.078125q-0.078125 -0.09375 -0.078125 -0.203125q0 -0.140625 0.078125 -0.21875q0.09375 -0.078125 0.296875 -0.078125l2.265625 0l0 -7.421875l-1.65625 0q-0.203125 0 -0.296875 -0.078125q-0.09375 -0.078125 -0.09375 -0.21875q0 -0.125 0.078125 -0.203125q0.09375 -0.078125 0.3125 -0.078125l2.21875 0zm11.932617 12.40625l-7.625 0q-0.21875 0 -0.3125 -0.078125q-0.078125 -0.078125 -0.078125 -0.203125q0 -0.125 0.078125 -0.203125q0.09375 -0.078125 0.3125 -0.078125l7.625 0q0.21875 0 0.296875 0.078125q0.09375 0.078125 0.09375 0.203125q0 0.125 -0.09375 0.203125q-0.078125 0.078125 -0.296875 0.078125zm3.4169922 -6.390625l0 2.5625l-1.34375 0q-0.203125 0 -0.296875 -0.078125q-0.078125 -0.09375 -0.078125 -0.203125q0 -0.140625 0.078125 -0.21875q0.09375 -0.078125 0.296875 -0.078125l0.78125 0l0 -7.421875l-0.78125 0q-0.203125 0 -0.296875 -0.078125q-0.078125 -0.078125 -0.078125 -0.21875q0 -0.125 0.078125 -0.203125q0.09375 -0.078125 0.296875 -0.078125l1.34375 0l0 5.296875l2.4375 -2.0625l-0.28125 0q-0.203125 0 -0.296875 -0.078125q-0.09375 -0.078125 -0.09375 -0.203125q0 -0.125 0.09375 -0.203125q0.09375 -0.09375 0.296875 -0.09375l1.828125 0q0.21875 0 0.296875 0.09375q0.09375 0.078125 0.09375 0.203125q0 0.125 -0.09375 0.203125q-0.078125 0.078125 -0.296875 0.078125l-0.65625 0l-2.25 1.875l2.84375 2.890625l0.65625 0q0.21875 0 0.296875 0.078125q0.09375 0.078125 0.09375 0.21875q0 0.109375 -0.09375 0.203125q-0.078125 0.078125 -0.296875 0.078125l-1.859375 0q-0.203125 0 -0.296875 -0.078125q-0.078125 -0.09375 -0.078125 -0.203125q0 -0.140625 0.078125 -0.21875q0.09375 -0.078125 0.296875 -0.078125l0.40625 0l-2.46875 -2.53125l-0.65625 0.546875zm7.713867 -3.359375l0 0.875q0.609375 -0.609375 1.09375 -0.84375q0.484375 -0.234375 1.09375 -0.234375q0.65625 0 1.1875 0.28125q0.390625 0.203125 0.703125 0.6875q0.3125 0.46875 0.3125 0.96875l0 3.609375l0.484375 0q0.203125 0 0.28125 0.078125q0.09375 0.078125 0.09375 0.21875q0 0.109375 -0.09375 0.203125q-0.078125 0.078125 -0.28125 0.078125l-1.546875 0q-0.203125 0 -0.296875 -0.078125q-0.09375 -0.09375 -0.09375 -0.203125q0 -0.140625 0.09375 -0.21875q0.09375 -0.078125 0.296875 -0.078125l0.484375 0l0 -3.515625q0 -0.609375 -0.453125 -1.03125q-0.4375 -0.421875 -1.1875 -0.421875q-0.5625 0 -0.984375 0.234375q-0.40625 0.21875 -1.1875 1.140625l0 3.59375l0.65625 0q0.203125 0 0.28125 0.078125q0.09375 0.078125 0.09375 0.21875q0 0.109375 -0.09375 0.203125q-0.078125 0.078125 -0.28125 0.078125l-1.875 0q-0.203125 0 -0.296875 -0.078125q-0.09375 -0.09375 -0.09375 -0.203125q0 -0.140625 0.09375 -0.21875q0.09375 -0.078125 0.296875 -0.078125l0.640625 0l0 -4.765625l-0.484375 0q-0.203125 0 -0.296875 -0.078125q-0.078125 -0.078125 -0.078125 -0.21875q0 -0.109375 0.078125 -0.1875q0.09375 -0.09375 0.296875 -0.09375l1.0625 0zm8.401367 0l0 0.875q0.609375 -0.609375 1.09375 -0.84375q0.484375 -0.234375 1.09375 -0.234375q0.65625 0 1.1875 0.28125q0.390625 0.203125 0.703125 0.6875q0.3125 0.46875 0.3125 0.96875l0 3.609375l0.484375 0q0.203125 0 0.28125 0.078125q0.09375 0.078125 0.09375 0.21875q0 0.109375 -0.09375 0.203125q-0.078125 0.078125 -0.28125 0.078125l-1.546875 0q-0.203125 0 -0.296875 -0.078125q-0.09375 -0.09375 -0.09375 -0.203125q0 -0.140625 0.09375 -0.21875q0.09375 -0.078125 0.296875 -0.078125l0.484375 0l0 -3.515625q0 -0.609375 -0.453125 -1.03125q-0.4375 -0.421875 -1.1875 -0.421875q-0.5625 0 -0.984375 0.234375q-0.40625 0.21875 -1.1875 1.140625l0 3.59375l0.65625 0q0.203125 0 0.28125 0.078125q0.09375 0.078125 0.09375 0.21875q0 0.109375 -0.09375 0.203125q-0.078125 0.078125 -0.28125 0.078125l-1.875 0q-0.203125 0 -0.296875 -0.078125q-0.09375 -0.09375 -0.09375 -0.203125q0 -0.140625 0.09375 -0.21875q0.09375 -0.078125 0.296875 -0.078125l0.640625 0l0 -4.765625l-0.484375 0q-0.203125 0 -0.296875 -0.078125q-0.078125 -0.078125 -0.078125 -0.21875q0 -0.109375 0.078125 -0.1875q0.09375 -0.09375 0.296875 -0.09375l1.0625 0z" fill-rule="nonzero"/><path fill="#000000" fill-opacity="0.0" d="m403.08737 186.59706l67.21094 0l0 15.859375l-67.21094 0l0 -15.859375z" fill-rule="nonzero"/><path fill="#000000" fill-opacity="0.0" d="m470.2983 186.59706l0 0l0 15.859375l0 0l0 -15.859375z" fill-rule="nonzero"/><path fill="#efefef" d="m327.47507 207.81233l84.01367 0l0 16.800003l-84.01367 0l0 -16.800003z" fill-rule="nonzero"/><path fill="#000000" fill-opacity="0.0" d="m327.47507 209.59706l84.01367 0l0 15.859375l-84.01367 0l0 -15.859375z" fill-rule="nonzero"/><path fill="#000000" d="m332.1782 221.25233l-0.96875 0l-2.359375 -5.34375l-0.59375 0q-0.203125 0 -0.296875 -0.078125q-0.078125 -0.078125 -0.078125 -0.21875q0 -0.109375 0.078125 -0.1875q0.09375 -0.09375 0.296875 -0.09375l2.15625 0q0.203125 0 0.296875 0.09375q0.09375 0.078125 0.09375 0.203125q0 0.125 -0.09375 0.203125q-0.09375 0.078125 -0.296875 0.078125l-0.953125 0l2.109375 4.765625l0.25 0l2.0625 -4.765625l-0.953125 0q-0.203125 0 -0.296875 -0.078125q-0.078125 -0.078125 -0.078125 -0.21875q0 -0.109375 0.078125 -0.1875q0.09375 -0.09375 0.296875 -0.09375l2.15625 0q0.21875 0 0.296875 0.09375q0.09375 0.078125 0.09375 0.203125q0 0.125 -0.09375 0.203125q-0.078125 0.078125 -0.296875 0.078125l-0.578125 0l-2.328125 5.34375zm11.010742 -2.828125l-5.859375 0q0.15625 1.125 0.9375 1.8125q0.78125 0.671875 1.9375 0.671875q0.640625 0 1.34375 -0.203125q0.703125 -0.21875 1.15625 -0.578125q0.125 -0.09375 0.21875 -0.09375q0.109375 0 0.1875 0.09375q0.09375 0.078125 0.09375 0.1875q0 0.109375 -0.109375 0.21875q-0.328125 0.34375 -1.171875 0.640625q-0.84375 0.296875 -1.71875 0.296875q-1.484375 0 -2.46875 -0.953125q-0.984375 -0.96875 -0.984375 -2.34375q0 -1.25 0.921875 -2.140625q0.9375 -0.90625 2.296875 -0.90625q1.40625 0 2.3125 0.921875q0.921875 0.921875 0.90625 2.375zm-0.578125 -0.578125q-0.171875 -0.953125 -0.90625 -1.546875q-0.734375 -0.59375 -1.734375 -0.59375q-1.0 0 -1.734375 0.59375q-0.71875 0.578125 -0.890625 1.546875l5.265625 0zm8.260742 -1.9375l0 -0.1875q0 -0.21875 0.078125 -0.296875q0.09375 -0.09375 0.21875 -0.09375q0.125 0 0.203125 0.09375q0.078125 0.078125 0.078125 0.296875l0 1.296875q0 0.21875 -0.078125 0.3125q-0.078125 0.078125 -0.203125 0.078125q-0.125 0 -0.203125 -0.078125q-0.078125 -0.078125 -0.09375 -0.265625q-0.03125 -0.484375 -0.640625 -0.921875q-0.59375 -0.4375 -1.609375 -0.4375q-1.28125 0 -1.9375 0.8125q-0.65625 0.796875 -0.65625 1.828125q0 1.109375 0.71875 1.84375q0.734375 0.71875 1.90625 0.71875q0.65625 0 1.34375 -0.25q0.703125 -0.25 1.265625 -0.796875q0.140625 -0.140625 0.25 -0.140625q0.125 0 0.203125 0.078125q0.078125 0.078125 0.078125 0.203125q0 0.296875 -0.6875 0.75q-1.125 0.71875 -2.484375 0.71875q-1.390625 0 -2.28125 -0.875q-0.890625 -0.890625 -0.890625 -2.25q0 -1.390625 0.90625 -2.296875q0.921875 -0.921875 2.296875 -0.921875q1.328125 0 2.21875 0.78125zm4.823242 -0.578125l3.125 0q0.203125 0 0.28125 0.09375q0.09375 0.078125 0.09375 0.203125q0 0.125 -0.09375 0.203125q-0.078125 0.078125 -0.28125 0.078125l-3.125 0l0 3.828125q0 0.5 0.40625 0.84375q0.40625 0.328125 1.171875 0.328125q0.578125 0 1.25 -0.171875q0.6875 -0.1875 1.0625 -0.40625q0.140625 -0.078125 0.21875 -0.078125q0.109375 0 0.1875 0.09375q0.09375 0.078125 0.09375 0.1875q0 0.109375 -0.09375 0.1875q-0.21875 0.234375 -1.0625 0.5q-0.84375 0.25 -1.609375 0.25q-1.015625 0 -1.609375 -0.46875q-0.59375 -0.46875 -0.59375 -1.265625l0 -3.828125l-1.0625 0q-0.203125 0 -0.296875 -0.078125q-0.078125 -0.078125 -0.078125 -0.21875q0 -0.109375 0.078125 -0.1875q0.09375 -0.09375 0.296875 -0.09375l1.0625 0l0 -1.6875q0 -0.21875 0.078125 -0.296875q0.09375 -0.09375 0.21875 -0.09375q0.125 0 0.203125 0.09375q0.078125 0.078125 0.078125 0.296875l0 1.6875zm12.791992 2.96875q0 1.3125 -0.9375 2.25q-0.9375 0.921875 -2.265625 0.921875q-1.34375 0 -2.28125 -0.921875q-0.9375 -0.9375 -0.9375 -2.25q0 -1.3125 0.9375 -2.234375q0.9375 -0.9375 2.28125 -0.9375q1.328125 0 2.265625 0.9375q0.9375 0.921875 0.9375 2.234375zm-0.578125 0q0 -1.078125 -0.765625 -1.828125q-0.765625 -0.765625 -1.859375 -0.765625q-1.09375 0 -1.875 0.765625q-0.765625 0.765625 -0.765625 1.828125q0 1.078125 0.765625 1.84375q0.78125 0.765625 1.875 0.765625q1.09375 0 1.859375 -0.765625q0.765625 -0.765625 0.765625 -1.84375zm5.088867 -2.96875l0 1.453125q1.125 -1.015625 1.671875 -1.296875q0.5625 -0.296875 1.03125 -0.296875q0.515625 0 0.953125 0.34375q0.4375 0.34375 0.4375 0.515625q0 0.140625 -0.09375 0.234375q-0.078125 0.078125 -0.203125 0.078125q-0.0625 0 -0.109375 -0.015625q-0.046875 -0.03125 -0.1875 -0.171875q-0.234375 -0.234375 -0.421875 -0.3125q-0.171875 -0.09375 -0.34375 -0.09375q-0.375 0 -0.90625 0.296875q-0.53125 0.296875 -1.828125 1.46875l0 3.140625l2.546875 0q0.203125 0 0.296875 0.078125q0.09375 0.078125 0.09375 0.21875q0 0.109375 -0.09375 0.203125q-0.09375 0.078125 -0.296875 0.078125l-4.515625 0q-0.203125 0 -0.296875 -0.078125q-0.078125 -0.078125 -0.078125 -0.203125q0 -0.109375 0.078125 -0.1875q0.09375 -0.078125 0.296875 -0.078125l1.390625 0l0 -4.796875l-1.0625 0q-0.203125 0 -0.296875 -0.078125q-0.078125 -0.078125 -0.078125 -0.21875q0 -0.109375 0.078125 -0.1875q0.09375 -0.09375 0.296875 -0.09375l1.640625 0zm9.370117 -2.9375l0 1.46875l-0.84375 0l0 -1.46875l0.84375 0zm0.015625 2.9375l0 5.34375l2.265625 0q0.203125 0 0.296875 0.078125q0.09375 0.078125 0.09375 0.21875q0 0.109375 -0.09375 0.203125q-0.09375 0.078125 -0.296875 0.078125l-5.09375 0q-0.203125 0 -0.296875 -0.078125q-0.078125 -0.09375 -0.078125 -0.203125q0 -0.140625 0.078125 -0.21875q0.09375 -0.078125 0.296875 -0.078125l2.265625 0l0 -4.765625l-1.6875 0q-0.203125 0 -0.296875 -0.078125q-0.09375 -0.078125 -0.09375 -0.203125q0 -0.125 0.09375 -0.203125q0.09375 -0.09375 0.296875 -0.09375l2.25 0zm10.620117 0l0 0.515625l-4.3125 4.828125l3.890625 0l0 -0.796875q0 -0.203125 0.078125 -0.28125q0.078125 -0.09375 0.203125 -0.09375q0.140625 0 0.21875 0.09375q0.078125 0.078125 0.078125 0.28125l0 1.375l-5.25 0l0 -0.515625l4.28125 -4.828125l-3.578125 0l0 0.78125q0 0.203125 -0.078125 0.296875q-0.078125 0.09375 -0.203125 0.09375q-0.125 0 -0.21875 -0.09375q-0.078125 -0.09375 -0.078125 -0.296875l0 -1.359375l4.96875 0zm8.995117 3.09375l-5.859375 0q0.15625 1.125 0.9375 1.8125q0.78125 0.671875 1.9375 0.671875q0.640625 0 1.34375 -0.203125q0.703125 -0.21875 1.15625 -0.578125q0.125 -0.09375 0.21875 -0.09375q0.109375 0 0.1875 0.09375q0.09375 0.078125 0.09375 0.1875q0 0.109375 -0.109375 0.21875q-0.328125 0.34375 -1.171875 0.640625q-0.84375 0.296875 -1.71875 0.296875q-1.484375 0 -2.46875 -0.953125q-0.984375 -0.96875 -0.984375 -2.34375q0 -1.25 0.921875 -2.140625q0.9375 -0.90625 2.296875 -0.90625q1.40625 0 2.3125 0.921875q0.921875 0.921875 0.90625 2.375zm-0.578125 -0.578125q-0.171875 -0.953125 -0.90625 -1.546875q-0.734375 -0.59375 -1.734375 -0.59375q-1.0 0 -1.734375 0.59375q-0.71875 0.578125 -0.890625 1.546875l5.265625 0zm5.182617 -2.515625l0 1.453125q1.125 -1.015625 1.671875 -1.296875q0.5625 -0.296875 1.03125 -0.296875q0.515625 0 0.953125 0.34375q0.4375 0.34375 0.4375 0.515625q0 0.140625 -0.09375 0.234375q-0.078125 0.078125 -0.203125 0.078125q-0.0625 0 -0.109375 -0.015625q-0.046875 -0.03125 -0.1875 -0.171875q-0.234375 -0.234375 -0.421875 -0.3125q-0.171875 -0.09375 -0.34375 -0.09375q-0.375 0 -0.90625 0.296875q-0.53125 0.296875 -1.828125 1.46875l0 3.140625l2.546875 0q0.203125 0 0.296875 0.078125q0.09375 0.078125 0.09375 0.21875q0 0.109375 -0.09375 0.203125q-0.09375 0.078125 -0.296875 0.078125l-4.515625 0q-0.203125 0 -0.296875 -0.078125q-0.078125 -0.078125 -0.078125 -0.203125q0 -0.109375 0.078125 -0.1875q0.09375 -0.078125 0.296875 -0.078125l1.390625 0l0 -4.796875l-1.0625 0q-0.203125 0 -0.296875 -0.078125q-0.078125 -0.078125 -0.078125 -0.21875q0 -0.109375 0.078125 -0.1875q0.09375 -0.09375 0.296875 -0.09375l1.640625 0z" fill-rule="nonzero"/><path fill="#000000" fill-opacity="0.0" d="m411.48874 209.59706l8.401367 0l0 15.859375l-8.401367 0l0 -15.859375z" fill-rule="nonzero"/><path fill="#000000" fill-opacity="0.0" d="m419.8901 209.59706l0 0l0 15.859375l0 0l0 -15.859375z" fill-rule="nonzero"/><path fill="#efefef" d="m327.47507 230.81233l75.612305 0l0 16.800003l-75.612305 0l0 -16.800003z" fill-rule="nonzero"/><path fill="#000000" fill-opacity="0.0" d="m327.47507 232.59706l75.612305 0l0 15.859375l-75.612305 0l0 -15.859375z" fill-rule="nonzero"/><path fill="#000000" d="m330.9907 238.33046l0 1.453125q1.125 -1.015625 1.671875 -1.296875q0.5625 -0.296875 1.03125 -0.296875q0.515625 0 0.953125 0.34375q0.4375 0.34375 0.4375 0.515625q0 0.140625 -0.09375 0.234375q-0.078125 0.078125 -0.203125 0.078125q-0.0625 0 -0.109375 -0.015625q-0.046875 -0.03125 -0.1875 -0.171875q-0.234375 -0.234375 -0.421875 -0.3125q-0.171875 -0.09375 -0.34375 -0.09375q-0.375 0 -0.90625 0.296875q-0.53125 0.296875 -1.828125 1.46875l0 3.140625l2.546875 0q0.203125 0 0.296875 0.078125q0.09375 0.078125 0.09375 0.21875q0 0.109375 -0.09375 0.203125q-0.09375 0.078125 -0.296875 0.078125l-4.515625 0q-0.203125 0 -0.296875 -0.078125q-0.078125 -0.078125 -0.078125 -0.203125q0 -0.109375 0.078125 -0.1875q0.09375 -0.078125 0.296875 -0.078125l1.390625 0l0 -4.796875l-1.0625 0q-0.203125 0 -0.296875 -0.078125q-0.078125 -0.078125 -0.078125 -0.21875q0 -0.109375 0.078125 -0.1875q0.09375 -0.09375 0.296875 -0.09375l1.640625 0zm12.198242 3.09375l-5.859375 0q0.15625 1.125 0.9375 1.8125q0.78125 0.671875 1.9375 0.671875q0.640625 0 1.34375 -0.203125q0.703125 -0.21875 1.15625 -0.578125q0.125 -0.09375 0.21875 -0.09375q0.109375 0 0.1875 0.09375q0.09375 0.078125 0.09375 0.1875q0 0.109375 -0.109375 0.21875q-0.328125 0.34375 -1.171875 0.640625q-0.84375 0.296875 -1.71875 0.296875q-1.484375 0 -2.46875 -0.953125q-0.984375 -0.96875 -0.984375 -2.34375q0 -1.25 0.921875 -2.140625q0.9375 -0.90625 2.296875 -0.90625q1.40625 0 2.3125 0.921875q0.921875 0.921875 0.90625 2.375zm-0.578125 -0.578125q-0.171875 -0.953125 -0.90625 -1.546875q-0.734375 -0.59375 -1.734375 -0.59375q-1.0 0 -1.734375 0.59375q-0.71875 0.578125 -0.890625 1.546875l5.265625 0zm7.791992 -1.46875l0 -1.046875l1.359375 0q0.203125 0 0.28125 0.09375q0.09375 0.078125 0.09375 0.203125q0 0.125 -0.09375 0.203125q-0.078125 0.078125 -0.28125 0.078125l-0.78125 0l0 5.734375q0 0.578125 -0.25 1.03125q-0.15625 0.296875 -0.546875 0.609375q-0.375 0.328125 -0.6875 0.46875q-0.3125 0.140625 -0.84375 0.140625l-1.625 0q-0.203125 0 -0.296875 -0.078125q-0.09375 -0.078125 -0.09375 -0.203125q0 -0.140625 0.09375 -0.21875q0.09375 -0.078125 0.296875 -0.078125l1.640625 0q0.515625 0 0.921875 -0.265625q0.40625 -0.25 0.671875 -0.75q0.140625 -0.28125 0.140625 -0.734375l0 -1.71875q-0.921875 1.265625 -2.375 1.265625q-1.171875 0 -2.03125 -0.875q-0.859375 -0.890625 -0.859375 -2.125q0 -1.234375 0.859375 -2.109375q0.859375 -0.875 2.03125 -0.875q1.453125 0 2.375 1.25zm0 1.734375q0 -1.015625 -0.6875 -1.703125q-0.6875 -0.703125 -1.65625 -0.703125q-0.96875 0 -1.65625 0.703125q-0.6875 0.703125 -0.6875 1.703125q0 1.015625 0.6875 1.71875q0.6875 0.703125 1.65625 0.703125q0.96875 0 1.65625 -0.703125q0.6875 -0.703125 0.6875 -1.71875zm9.588867 0.3125l-5.859375 0q0.15625 1.125 0.9375 1.8125q0.78125 0.671875 1.9375 0.671875q0.640625 0 1.34375 -0.203125q0.703125 -0.21875 1.15625 -0.578125q0.125 -0.09375 0.21875 -0.09375q0.109375 0 0.1875 0.09375q0.09375 0.078125 0.09375 0.1875q0 0.109375 -0.109375 0.21875q-0.328125 0.34375 -1.171875 0.640625q-0.84375 0.296875 -1.71875 0.296875q-1.484375 0 -2.46875 -0.953125q-0.984375 -0.96875 -0.984375 -2.34375q0 -1.25 0.921875 -2.140625q0.9375 -0.90625 2.296875 -0.90625q1.40625 0 2.3125 0.921875q0.921875 0.921875 0.90625 2.375zm-0.578125 -0.578125q-0.171875 -0.953125 -0.90625 -1.546875q-0.734375 -0.59375 -1.734375 -0.59375q-1.0 0 -1.734375 0.59375q-0.71875 0.578125 -0.890625 1.546875l5.265625 0zm6.260742 0.3125l2.625 2.515625q0.265625 0 0.328125 0.03125q0.078125 0.015625 0.125 0.09375q0.046875 0.078125 0.046875 0.171875q0 0.109375 -0.09375 0.203125q-0.078125 0.078125 -0.296875 0.078125l-1.84375 0q-0.203125 0 -0.296875 -0.078125q-0.09375 -0.09375 -0.09375 -0.203125q0 -0.140625 0.09375 -0.21875q0.09375 -0.078125 0.296875 -0.078125l0.953125 0l-2.234375 -2.140625l-2.21875 2.140625l0.953125 0q0.203125 0 0.296875 0.078125q0.09375 0.078125 0.09375 0.21875q0 0.109375 -0.09375 0.203125q-0.09375 0.078125 -0.296875 0.078125l-1.859375 0q-0.203125 0 -0.296875 -0.078125q-0.09375 -0.09375 -0.09375 -0.203125q0 -0.09375 0.046875 -0.171875q0.0625 -0.078125 0.125 -0.09375q0.0625 -0.03125 0.328125 -0.03125l2.625 -2.515625l-2.328125 -2.25q-0.25 0 -0.328125 -0.015625q-0.0625 -0.03125 -0.109375 -0.109375q-0.046875 -0.078125 -0.046875 -0.171875q0 -0.109375 0.078125 -0.1875q0.09375 -0.09375 0.3125 -0.09375l1.5625 0q0.21875 0 0.296875 0.09375q0.09375 0.078125 0.09375 0.203125q0 0.125 -0.09375 0.203125q-0.078125 0.078125 -0.296875 0.078125l-0.6875 0l1.9375 1.875l1.953125 -1.875l-0.6875 0q-0.203125 0 -0.296875 -0.078125q-0.09375 -0.078125 -0.09375 -0.21875q0 -0.109375 0.078125 -0.1875q0.09375 -0.09375 0.3125 -0.09375l1.5625 0q0.203125 0 0.296875 0.09375q0.09375 0.078125 0.09375 0.203125q0 0.078125 -0.0625 0.15625q-0.046875 0.078125 -0.109375 0.109375q-0.0625 0.015625 -0.3125 0.015625l-2.34375 2.25zm11.823242 6.921875l-7.625 0q-0.21875 0 -0.3125 -0.078125q-0.078125 -0.078125 -0.078125 -0.203125q0 -0.125 0.078125 -0.203125q0.09375 -0.078125 0.3125 -0.078125l7.625 0q0.21875 0 0.296875 0.078125q0.09375 0.078125 0.09375 0.203125q0 0.125 -0.09375 0.203125q-0.078125 0.078125 -0.296875 0.078125zm6.979492 -9.171875l0 -0.1875q0 -0.21875 0.078125 -0.296875q0.09375 -0.09375 0.21875 -0.09375q0.125 0 0.203125 0.09375q0.078125 0.078125 0.078125 0.296875l0 1.296875q0 0.21875 -0.078125 0.3125q-0.078125 0.078125 -0.203125 0.078125q-0.125 0 -0.203125 -0.078125q-0.078125 -0.078125 -0.09375 -0.265625q-0.03125 -0.484375 -0.640625 -0.921875q-0.59375 -0.4375 -1.609375 -0.4375q-1.28125 0 -1.9375 0.8125q-0.65625 0.796875 -0.65625 1.828125q0 1.109375 0.71875 1.84375q0.734375 0.71875 1.90625 0.71875q0.65625 0 1.34375 -0.25q0.703125 -0.25 1.265625 -0.796875q0.140625 -0.140625 0.25 -0.140625q0.125 0 0.203125 0.078125q0.078125 0.078125 0.078125 0.203125q0 0.296875 -0.6875 0.75q-1.125 0.71875 -2.484375 0.71875q-1.390625 0 -2.28125 -0.875q-0.890625 -0.890625 -0.890625 -2.25q0 -1.390625 0.90625 -2.296875q0.921875 -0.921875 2.296875 -0.921875q1.328125 0 2.21875 0.78125zm6.291992 -3.234375l0 8.0l2.265625 0q0.203125 0 0.296875 0.078125q0.09375 0.078125 0.09375 0.21875q0 0.109375 -0.09375 0.203125q-0.09375 0.078125 -0.296875 0.078125l-5.09375 0q-0.203125 0 -0.296875 -0.078125q-0.078125 -0.09375 -0.078125 -0.203125q0 -0.140625 0.078125 -0.21875q0.09375 -0.078125 0.296875 -0.078125l2.265625 0l0 -7.421875l-1.65625 0q-0.203125 0 -0.296875 -0.078125q-0.09375 -0.078125 -0.09375 -0.21875q0 -0.125 0.078125 -0.203125q0.09375 -0.078125 0.3125 -0.078125l2.21875 0zm7.745117 3.234375l0 4.765625l2.515625 0q0.203125 0 0.296875 0.078125q0.09375 0.078125 0.09375 0.21875q0 0.109375 -0.09375 0.203125q-0.09375 0.078125 -0.296875 0.078125l-4.484375 0q-0.21875 0 -0.3125 -0.078125q-0.078125 -0.09375 -0.078125 -0.203125q0 -0.140625 0.078125 -0.21875q0.09375 -0.078125 0.3125 -0.078125l1.375 0l0 -4.765625l-1.234375 0q-0.203125 0 -0.296875 -0.078125q-0.09375 -0.078125 -0.09375 -0.21875q0 -0.109375 0.09375 -0.1875q0.09375 -0.09375 0.296875 -0.09375l1.234375 0l0 -0.859375q0 -0.734375 0.59375 -1.265625q0.59375 -0.53125 1.5625 -0.53125q0.8125 0 1.734375 0.15625q0.34375 0.046875 0.40625 0.125q0.078125 0.078125 0.078125 0.203125q0 0.109375 -0.078125 0.1875q-0.078125 0.078125 -0.21875 0.078125q-0.046875 0 -0.1875 -0.015625q-1.03125 -0.15625 -1.734375 -0.15625q-0.75 0 -1.15625 0.375q-0.40625 0.359375 -0.40625 0.84375l0 0.859375l2.6875 0q0.203125 0 0.28125 0.09375q0.09375 0.078125 0.09375 0.203125q0 0.125 -0.09375 0.203125q-0.078125 0.078125 -0.28125 0.078125l-2.6875 0z" fill-rule="nonzero"/><path fill="#000000" fill-opacity="0.0" d="m403.08737 232.59706l302.4492 0l0 15.859375l-302.4492 0l0 -15.859375z" fill-rule="nonzero"/><path fill="#000000" fill-opacity="0.0" d="m705.53656 232.59706l0 0l0 15.859375l0 0l0 -15.859375z" fill-rule="nonzero"/><path fill="#efefef" d="m327.47507 253.81233l117.61914 0l0 16.800003l-117.61914 0l0 -16.800003z" fill-rule="nonzero"/><path fill="#000000" fill-opacity="0.0" d="m327.47507 255.59706l117.61914 0l0 15.85939l-117.61914 0l0 -15.85939z" fill-rule="nonzero"/><path fill="#000000" d="m330.4907 261.33047l3.125 0q0.203125 0 0.28125 0.09375q0.09375 0.078125 0.09375 0.203125q0 0.125 -0.09375 0.203125q-0.078125 0.078125 -0.28125 0.078125l-3.125 0l0 3.828125q0 0.5 0.40625 0.84375q0.40625 0.328125 1.171875 0.328125q0.578125 0 1.25 -0.171875q0.6875 -0.1875 1.0625 -0.40625q0.140625 -0.078125 0.21875 -0.078125q0.109375 0 0.1875 0.09375q0.09375 0.078125 0.09375 0.1875q0 0.109375 -0.09375 0.1875q-0.21875 0.234375 -1.0625 0.5q-0.84375 0.25 -1.609375 0.25q-1.015625 0 -1.609375 -0.46875q-0.59375 -0.46875 -0.59375 -1.265625l0 -3.828125l-1.0625 0q-0.203125 0 -0.296875 -0.078125q-0.078125 -0.078125 -0.078125 -0.21875q0 -0.109375 0.078125 -0.1875q0.09375 -0.09375 0.296875 -0.09375l1.0625 0l0 -1.6875q0 -0.21875 0.078125 -0.296875q0.09375 -0.09375 0.21875 -0.09375q0.125 0 0.203125 0.09375q0.078125 0.078125 0.078125 0.296875l0 1.6875zm8.901367 0l0 1.453125q1.125 -1.015625 1.671875 -1.296875q0.5625 -0.296875 1.03125 -0.296875q0.515625 0 0.953125 0.34375q0.4375 0.34375 0.4375 0.515625q0 0.140625 -0.09375 0.234375q-0.078125 0.078125 -0.203125 0.078125q-0.0625 0 -0.109375 -0.015625q-0.046875 -0.03125 -0.1875 -0.171875q-0.234375 -0.234375 -0.421875 -0.3125q-0.171875 -0.09375 -0.34375 -0.09375q-0.375 0 -0.90625 0.296875q-0.53125 0.296875 -1.828125 1.46875l0 3.140625l2.546875 0q0.203125 0 0.296875 0.078125q0.09375 0.078125 0.09375 0.21875q0 0.109375 -0.09375 0.203125q-0.09375 0.078125 -0.296875 0.078125l-4.515625 0q-0.203125 0 -0.296875 -0.078125q-0.078125 -0.078125 -0.078125 -0.203125q0 -0.109375 0.078125 -0.1875q0.09375 -0.078125 0.296875 -0.078125l1.390625 0l0 -4.796875l-1.0625 0q-0.203125 0 -0.296875 -0.078125q-0.078125 -0.078125 -0.078125 -0.21875q0 -0.109375 0.078125 -0.1875q0.09375 -0.09375 0.296875 -0.09375l1.640625 0zm10.745117 5.921875l0 -0.828125q-1.265625 1.046875 -2.6875 1.046875q-1.03125 0 -1.609375 -0.515625q-0.578125 -0.53125 -0.578125 -1.28125q0 -0.828125 0.765625 -1.453125q0.765625 -0.625 2.234375 -0.625q0.390625 0 0.859375 0.046875q0.46875 0.046875 1.015625 0.15625l0 -0.921875q0 -0.46875 -0.4375 -0.8125q-0.4375 -0.359375 -1.3125 -0.359375q-0.671875 0 -1.890625 0.390625q-0.21875 0.0625 -0.28125 0.0625q-0.109375 0 -0.1875 -0.078125q-0.078125 -0.078125 -0.078125 -0.203125q0 -0.109375 0.078125 -0.1875q0.09375 -0.09375 0.765625 -0.28125q1.0625 -0.28125 1.609375 -0.28125q1.09375 0 1.703125 0.546875q0.609375 0.53125 0.609375 1.203125l0 3.796875l0.765625 0q0.203125 0 0.296875 0.078125q0.09375 0.078125 0.09375 0.21875q0 0.109375 -0.09375 0.203125q-0.09375 0.078125 -0.296875 0.078125l-1.34375 0zm0 -2.859375q-0.40625 -0.109375 -0.859375 -0.15625q-0.453125 -0.0625 -0.953125 -0.0625q-1.25 0 -1.953125 0.53125q-0.53125 0.40625 -0.53125 0.96875q0 0.515625 0.40625 0.875q0.40625 0.359375 1.1875 0.359375q0.734375 0 1.375 -0.296875q0.640625 -0.296875 1.328125 -0.953125l0 -1.265625zm7.026367 -6.0l0 1.46875l-0.84375 0l0 -1.46875l0.84375 0zm0.015625 2.9375l0 5.34375l2.265625 0q0.203125 0 0.296875 0.078125q0.09375 0.078125 0.09375 0.21875q0 0.109375 -0.09375 0.203125q-0.09375 0.078125 -0.296875 0.078125l-5.09375 0q-0.203125 0 -0.296875 -0.078125q-0.078125 -0.09375 -0.078125 -0.203125q0 -0.140625 0.078125 -0.21875q0.09375 -0.078125 0.296875 -0.078125l2.265625 0l0 -4.765625l-1.6875 0q-0.203125 0 -0.296875 -0.078125q-0.09375 -0.078125 -0.09375 -0.203125q0 -0.125 0.09375 -0.203125q0.09375 -0.09375 0.296875 -0.09375l2.25 0zm6.245117 0l0 0.875q0.609375 -0.609375 1.09375 -0.84375q0.484375 -0.234375 1.09375 -0.234375q0.65625 0 1.1875 0.28125q0.390625 0.203125 0.703125 0.6875q0.3125 0.46875 0.3125 0.96875l0 3.609375l0.484375 0q0.203125 0 0.28125 0.078125q0.09375 0.078125 0.09375 0.21875q0 0.109375 -0.09375 0.203125q-0.078125 0.078125 -0.28125 0.078125l-1.546875 0q-0.203125 0 -0.296875 -0.078125q-0.09375 -0.09375 -0.09375 -0.203125q0 -0.140625 0.09375 -0.21875q0.09375 -0.078125 0.296875 -0.078125l0.484375 0l0 -3.515625q0 -0.609375 -0.453125 -1.03125q-0.4375 -0.421875 -1.1875 -0.421875q-0.5625 0 -0.984375 0.234375q-0.40625 0.21875 -1.1875 1.140625l0 3.59375l0.65625 0q0.203125 0 0.28125 0.078125q0.09375 0.078125 0.09375 0.21875q0 0.109375 -0.09375 0.203125q-0.078125 0.078125 -0.28125 0.078125l-1.875 0q-0.203125 0 -0.296875 -0.078125q-0.09375 -0.09375 -0.09375 -0.203125q0 -0.140625 0.09375 -0.21875q0.09375 -0.078125 0.296875 -0.078125l0.640625 0l0 -4.765625l-0.484375 0q-0.203125 0 -0.296875 -0.078125q-0.078125 -0.078125 -0.078125 -0.21875q0 -0.109375 0.078125 -0.1875q0.09375 -0.09375 0.296875 -0.09375l1.0625 0zm13.073242 -2.65625l0 8.0l0.765625 0q0.203125 0 0.296875 0.078125q0.09375 0.078125 0.09375 0.21875q0 0.109375 -0.09375 0.203125q-0.09375 0.078125 -0.296875 0.078125l-1.34375 0l0 -1.140625q-1.0 1.359375 -2.546875 1.359375q-0.765625 0 -1.484375 -0.40625q-0.71875 -0.421875 -1.140625 -1.1875q-0.40625 -0.765625 -0.40625 -1.578125q0 -0.8125 0.40625 -1.578125q0.421875 -0.765625 1.140625 -1.171875q0.71875 -0.421875 1.5 -0.421875q1.5 0 2.53125 1.359375l0 -3.234375l-0.765625 0q-0.21875 0 -0.3125 -0.078125q-0.078125 -0.078125 -0.078125 -0.21875q0 -0.125 0.078125 -0.203125q0.09375 -0.078125 0.3125 -0.078125l1.34375 0zm-0.578125 5.625q0 -1.09375 -0.75 -1.84375q-0.734375 -0.75 -1.75 -0.75q-1.03125 0 -1.765625 0.75q-0.734375 0.75 -0.734375 1.84375q0 1.09375 0.734375 1.859375q0.734375 0.75 1.765625 0.75q1.015625 0 1.75 -0.75q0.75 -0.765625 0.75 -1.859375zm7.823242 2.953125l0 -0.828125q-1.265625 1.046875 -2.6875 1.046875q-1.03125 0 -1.609375 -0.515625q-0.578125 -0.53125 -0.578125 -1.28125q0 -0.828125 0.765625 -1.453125q0.765625 -0.625 2.234375 -0.625q0.390625 0 0.859375 0.046875q0.46875 0.046875 1.015625 0.15625l0 -0.921875q0 -0.46875 -0.4375 -0.8125q-0.4375 -0.359375 -1.3125 -0.359375q-0.671875 0 -1.890625 0.390625q-0.21875 0.0625 -0.28125 0.0625q-0.109375 0 -0.1875 -0.078125q-0.078125 -0.078125 -0.078125 -0.203125q0 -0.109375 0.078125 -0.1875q0.09375 -0.09375 0.765625 -0.28125q1.0625 -0.28125 1.609375 -0.28125q1.09375 0 1.703125 0.546875q0.609375 0.53125 0.609375 1.203125l0 3.796875l0.765625 0q0.203125 0 0.296875 0.078125q0.09375 0.078125 0.09375 0.21875q0 0.109375 -0.09375 0.203125q-0.09375 0.078125 -0.296875 0.078125l-1.34375 0zm0 -2.859375q-0.40625 -0.109375 -0.859375 -0.15625q-0.453125 -0.0625 -0.953125 -0.0625q-1.25 0 -1.953125 0.53125q-0.53125 0.40625 -0.53125 0.96875q0 0.515625 0.40625 0.875q0.40625 0.359375 1.1875 0.359375q0.734375 0 1.375 -0.296875q0.640625 -0.296875 1.328125 -0.953125l0 -1.265625zm5.557617 -3.0625l3.125 0q0.203125 0 0.28125 0.09375q0.09375 0.078125 0.09375 0.203125q0 0.125 -0.09375 0.203125q-0.078125 0.078125 -0.28125 0.078125l-3.125 0l0 3.828125q0 0.5 0.40625 0.84375q0.40625 0.328125 1.171875 0.328125q0.578125 0 1.25 -0.171875q0.6875 -0.1875 1.0625 -0.40625q0.140625 -0.078125 0.21875 -0.078125q0.109375 0 0.1875 0.09375q0.09375 0.078125 0.09375 0.1875q0 0.109375 -0.09375 0.1875q-0.21875 0.234375 -1.0625 0.5q-0.84375 0.25 -1.609375 0.25q-1.015625 0 -1.609375 -0.46875q-0.59375 -0.46875 -0.59375 -1.265625l0 -3.828125l-1.0625 0q-0.203125 0 -0.296875 -0.078125q-0.078125 -0.078125 -0.078125 -0.21875q0 -0.109375 0.078125 -0.1875q0.09375 -0.09375 0.296875 -0.09375l1.0625 0l0 -1.6875q0 -0.21875 0.078125 -0.296875q0.09375 -0.09375 0.21875 -0.09375q0.125 0 0.203125 0.09375q0.078125 0.078125 0.078125 0.296875l0 1.6875zm11.245117 5.921875l0 -0.828125q-1.265625 1.046875 -2.6875 1.046875q-1.03125 0 -1.609375 -0.515625q-0.578125 -0.53125 -0.578125 -1.28125q0 -0.828125 0.765625 -1.453125q0.765625 -0.625 2.234375 -0.625q0.390625 0 0.859375 0.046875q0.46875 0.046875 1.015625 0.15625l0 -0.921875q0 -0.46875 -0.4375 -0.8125q-0.4375 -0.359375 -1.3125 -0.359375q-0.671875 0 -1.890625 0.390625q-0.21875 0.0625 -0.28125 0.0625q-0.109375 0 -0.1875 -0.078125q-0.078125 -0.078125 -0.078125 -0.203125q0 -0.109375 0.078125 -0.1875q0.09375 -0.09375 0.765625 -0.28125q1.0625 -0.28125 1.609375 -0.28125q1.09375 0 1.703125 0.546875q0.609375 0.53125 0.609375 1.203125l0 3.796875l0.765625 0q0.203125 0 0.296875 0.078125q0.09375 0.078125 0.09375 0.21875q0 0.109375 -0.09375 0.203125q-0.09375 0.078125 -0.296875 0.078125l-1.34375 0zm0 -2.859375q-0.40625 -0.109375 -0.859375 -0.15625q-0.453125 -0.0625 -0.953125 -0.0625q-1.25 0 -1.953125 0.53125q-0.53125 0.40625 -0.53125 0.96875q0 0.515625 0.40625 0.875q0.40625 0.359375 1.1875 0.359375q0.734375 0 1.375 -0.296875q0.640625 -0.296875 1.328125 -0.953125l0 -1.265625zm10.557617 6.6875l-7.625 0q-0.21875 0 -0.3125 -0.078125q-0.078125 -0.078125 -0.078125 -0.203125q0 -0.125 0.078125 -0.203125q0.09375 -0.078125 0.3125 -0.078125l7.625 0q0.21875 0 0.296875 0.078125q0.09375 0.078125 0.09375 0.203125q0 0.125 -0.09375 0.203125q-0.078125 0.078125 -0.296875 0.078125zm2.7294922 -9.75l0 0.875q0.609375 -0.609375 1.09375 -0.84375q0.484375 -0.234375 1.09375 -0.234375q0.65625 0 1.1875 0.28125q0.390625 0.203125 0.703125 0.6875q0.3125 0.46875 0.3125 0.96875l0 3.609375l0.484375 0q0.203125 0 0.28125 0.078125q0.09375 0.078125 0.09375 0.21875q0 0.109375 -0.09375 0.203125q-0.078125 0.078125 -0.28125 0.078125l-1.546875 0q-0.203125 0 -0.296875 -0.078125q-0.09375 -0.09375 -0.09375 -0.203125q0 -0.140625 0.09375 -0.21875q0.09375 -0.078125 0.296875 -0.078125l0.484375 0l0 -3.515625q0 -0.609375 -0.453125 -1.03125q-0.4375 -0.421875 -1.1875 -0.421875q-0.5625 0 -0.984375 0.234375q-0.40625 0.21875 -1.1875 1.140625l0 3.59375l0.65625 0q0.203125 0 0.28125 0.078125q0.09375 0.078125 0.09375 0.21875q0 0.109375 -0.09375 0.203125q-0.078125 0.078125 -0.28125 0.078125l-1.875 0q-0.203125 0 -0.296875 -0.078125q-0.09375 -0.09375 -0.09375 -0.203125q0 -0.140625 0.09375 -0.21875q0.09375 -0.078125 0.296875 -0.078125l0.640625 0l0 -4.765625l-0.484375 0q-0.203125 0 -0.296875 -0.078125q-0.078125 -0.078125 -0.078125 -0.21875q0 -0.109375 0.078125 -0.1875q0.09375 -0.09375 0.296875 -0.09375l1.0625 0zm11.916992 5.921875l0 -0.828125q-1.265625 1.046875 -2.6875 1.046875q-1.03125 0 -1.609375 -0.515625q-0.578125 -0.53125 -0.578125 -1.28125q0 -0.828125 0.765625 -1.453125q0.765625 -0.625 2.234375 -0.625q0.390625 0 0.859375 0.046875q0.46875 0.046875 1.015625 0.15625l0 -0.921875q0 -0.46875 -0.4375 -0.8125q-0.4375 -0.359375 -1.3125 -0.359375q-0.671875 0 -1.890625 0.390625q-0.21875 0.0625 -0.28125 0.0625q-0.109375 0 -0.1875 -0.078125q-0.078125 -0.078125 -0.078125 -0.203125q0 -0.109375 0.078125 -0.1875q0.09375 -0.09375 0.765625 -0.28125q1.0625 -0.28125 1.609375 -0.28125q1.09375 0 1.703125 0.546875q0.609375 0.53125 0.609375 1.203125l0 3.796875l0.765625 0q0.203125 0 0.296875 0.078125q0.09375 0.078125 0.09375 0.21875q0 0.109375 -0.09375 0.203125q-0.09375 0.078125 -0.296875 0.078125l-1.34375 0zm0 -2.859375q-0.40625 -0.109375 -0.859375 -0.15625q-0.453125 -0.0625 -0.953125 -0.0625q-1.25 0 -1.953125 0.53125q-0.53125 0.40625 -0.53125 0.96875q0 0.515625 0.40625 0.875q0.40625 0.359375 1.1875 0.359375q0.734375 0 1.375 -0.296875q0.640625 -0.296875 1.328125 -0.953125l0 -1.265625zm4.135742 -3.0625l0 0.578125q0.71875 -0.78125 1.46875 -0.78125q0.4375 0 0.765625 0.234375q0.34375 0.234375 0.5625 0.71875q0.390625 -0.484375 0.78125 -0.71875q0.390625 -0.234375 0.796875 -0.234375q0.609375 0 0.984375 0.40625q0.484375 0.515625 0.484375 1.125l0 4.015625l0.484375 0q0.203125 0 0.296875 0.078125q0.09375 0.078125 0.09375 0.21875q0 0.109375 -0.09375 0.203125q-0.09375 0.078125 -0.296875 0.078125l-1.0625 0l0 -4.53125q0 -0.4375 -0.265625 -0.71875q-0.265625 -0.296875 -0.609375 -0.296875q-0.3125 0 -0.671875 0.234375q-0.34375 0.234375 -0.78125 0.9375l0 3.796875l0.46875 0q0.203125 0 0.296875 0.078125q0.09375 0.078125 0.09375 0.21875q0 0.109375 -0.09375 0.203125q-0.09375 0.078125 -0.296875 0.078125l-1.0625 0l0 -4.484375q0 -0.46875 -0.265625 -0.765625q-0.265625 -0.296875 -0.609375 -0.296875q-0.296875 0 -0.59375 0.203125q-0.421875 0.28125 -0.875 0.96875l0 3.796875l0.484375 0q0.203125 0 0.28125 0.078125q0.09375 0.078125 0.09375 0.21875q0 0.109375 -0.09375 0.203125q-0.078125 0.078125 -0.28125 0.078125l-1.546875 0q-0.203125 0 -0.296875 -0.078125q-0.09375 -0.09375 -0.09375 -0.203125q0 -0.140625 0.09375 -0.21875q0.09375 -0.078125 0.296875 -0.078125l0.484375 0l0 -4.765625l-0.484375 0q-0.203125 0 -0.296875 -0.078125q-0.09375 -0.078125 -0.09375 -0.21875q0 -0.109375 0.09375 -0.1875q0.09375 -0.09375 0.296875 -0.09375l1.0625 0zm14.120117 3.09375l-5.859375 0q0.15625 1.125 0.9375 1.8125q0.78125 0.671875 1.9375 0.671875q0.640625 0 1.34375 -0.203125q0.703125 -0.21875 1.15625 -0.578125q0.125 -0.09375 0.21875 -0.09375q0.109375 0 0.1875 0.09375q0.09375 0.078125 0.09375 0.1875q0 0.109375 -0.109375 0.21875q-0.328125 0.34375 -1.171875 0.640625q-0.84375 0.296875 -1.71875 0.296875q-1.484375 0 -2.46875 -0.953125q-0.984375 -0.96875 -0.984375 -2.34375q0 -1.25 0.921875 -2.140625q0.9375 -0.90625 2.296875 -0.90625q1.40625 0 2.3125 0.921875q0.921875 0.921875 0.90625 2.375zm-0.578125 -0.578125q-0.171875 -0.953125 -0.90625 -1.546875q-0.734375 -0.59375 -1.734375 -0.59375q-1.0 0 -1.734375 0.59375q-0.71875 0.578125 -0.890625 1.546875l5.265625 0z" fill-rule="nonzero"/><path fill="#000000" fill-opacity="0.0" d="m445.0942 255.59706l0 0l0 15.85939l0 0l0 -15.85939z" fill-rule="nonzero"/><path fill="#efefef" d="m327.47507 276.81235l117.61914 0l0 16.799988l-117.61914 0l0 -16.799988z" fill-rule="nonzero"/><path fill="#000000" fill-opacity="0.0" d="m327.47507 278.59708l117.61914 0l0 15.8593445l-117.61914 0l0 -15.8593445z" fill-rule="nonzero"/><path fill="#000000" d="m330.4907 284.33047l3.125 0q0.203125 0 0.28125 0.09375q0.09375 0.078125 0.09375 0.203125q0 0.125 -0.09375 0.203125q-0.078125 0.078125 -0.28125 0.078125l-3.125 0l0 3.828125q0 0.5 0.40625 0.84375q0.40625 0.328125 1.171875 0.328125q0.578125 0 1.25 -0.171875q0.6875 -0.1875 1.0625 -0.40625q0.140625 -0.078125 0.21875 -0.078125q0.109375 0 0.1875 0.09375q0.09375 0.078125 0.09375 0.1875q0 0.109375 -0.09375 0.1875q-0.21875 0.234375 -1.0625 0.5q-0.84375 0.25 -1.609375 0.25q-1.015625 0 -1.609375 -0.46875q-0.59375 -0.46875 -0.59375 -1.265625l0 -3.828125l-1.0625 0q-0.203125 0 -0.296875 -0.078125q-0.078125 -0.078125 -0.078125 -0.21875q0 -0.109375 0.078125 -0.1875q0.09375 -0.09375 0.296875 -0.09375l1.0625 0l0 -1.6875q0 -0.21875 0.078125 -0.296875q0.09375 -0.09375 0.21875 -0.09375q0.125 0 0.203125 0.09375q0.078125 0.078125 0.078125 0.296875l0 1.6875zm8.901367 0l0 1.453125q1.125 -1.015625 1.671875 -1.296875q0.5625 -0.296875 1.03125 -0.296875q0.515625 0 0.953125 0.34375q0.4375 0.34375 0.4375 0.515625q0 0.140625 -0.09375 0.234375q-0.078125 0.078125 -0.203125 0.078125q-0.0625 0 -0.109375 -0.015625q-0.046875 -0.03125 -0.1875 -0.171875q-0.234375 -0.234375 -0.421875 -0.3125q-0.171875 -0.09375 -0.34375 -0.09375q-0.375 0 -0.90625 0.296875q-0.53125 0.296875 -1.828125 1.46875l0 3.140625l2.546875 0q0.203125 0 0.296875 0.078125q0.09375 0.078125 0.09375 0.21875q0 0.109375 -0.09375 0.203125q-0.09375 0.078125 -0.296875 0.078125l-4.515625 0q-0.203125 0 -0.296875 -0.078125q-0.078125 -0.078125 -0.078125 -0.203125q0 -0.109375 0.078125 -0.1875q0.09375 -0.078125 0.296875 -0.078125l1.390625 0l0 -4.796875l-1.0625 0q-0.203125 0 -0.296875 -0.078125q-0.078125 -0.078125 -0.078125 -0.21875q0 -0.109375 0.078125 -0.1875q0.09375 -0.09375 0.296875 -0.09375l1.640625 0zm10.745117 5.921875l0 -0.828125q-1.265625 1.046875 -2.6875 1.046875q-1.03125 0 -1.609375 -0.515625q-0.578125 -0.53125 -0.578125 -1.28125q0 -0.828125 0.765625 -1.453125q0.765625 -0.625 2.234375 -0.625q0.390625 0 0.859375 0.046875q0.46875 0.046875 1.015625 0.15625l0 -0.921875q0 -0.46875 -0.4375 -0.8125q-0.4375 -0.359375 -1.3125 -0.359375q-0.671875 0 -1.890625 0.390625q-0.21875 0.0625 -0.28125 0.0625q-0.109375 0 -0.1875 -0.078125q-0.078125 -0.078125 -0.078125 -0.203125q0 -0.109375 0.078125 -0.1875q0.09375 -0.09375 0.765625 -0.28125q1.0625 -0.28125 1.609375 -0.28125q1.09375 0 1.703125 0.546875q0.609375 0.53125 0.609375 1.203125l0 3.796875l0.765625 0q0.203125 0 0.296875 0.078125q0.09375 0.078125 0.09375 0.21875q0 0.109375 -0.09375 0.203125q-0.09375 0.078125 -0.296875 0.078125l-1.34375 0zm0 -2.859375q-0.40625 -0.109375 -0.859375 -0.15625q-0.453125 -0.0625 -0.953125 -0.0625q-1.25 0 -1.953125 0.53125q-0.53125 0.40625 -0.53125 0.96875q0 0.515625 0.40625 0.875q0.40625 0.359375 1.1875 0.359375q0.734375 0 1.375 -0.296875q0.640625 -0.296875 1.328125 -0.953125l0 -1.265625zm7.026367 -6.0l0 1.46875l-0.84375 0l0 -1.46875l0.84375 0zm0.015625 2.9375l0 5.34375l2.265625 0q0.203125 0 0.296875 0.078125q0.09375 0.078125 0.09375 0.21875q0 0.109375 -0.09375 0.203125q-0.09375 0.078125 -0.296875 0.078125l-5.09375 0q-0.203125 0 -0.296875 -0.078125q-0.078125 -0.09375 -0.078125 -0.203125q0 -0.140625 0.078125 -0.21875q0.09375 -0.078125 0.296875 -0.078125l2.265625 0l0 -4.765625l-1.6875 0q-0.203125 0 -0.296875 -0.078125q-0.09375 -0.078125 -0.09375 -0.203125q0 -0.125 0.09375 -0.203125q0.09375 -0.09375 0.296875 -0.09375l2.25 0zm6.245117 0l0 0.875q0.609375 -0.609375 1.09375 -0.84375q0.484375 -0.234375 1.09375 -0.234375q0.65625 0 1.1875 0.28125q0.390625 0.203125 0.703125 0.6875q0.3125 0.46875 0.3125 0.96875l0 3.609375l0.484375 0q0.203125 0 0.28125 0.078125q0.09375 0.078125 0.09375 0.21875q0 0.109375 -0.09375 0.203125q-0.078125 0.078125 -0.28125 0.078125l-1.546875 0q-0.203125 0 -0.296875 -0.078125q-0.09375 -0.09375 -0.09375 -0.203125q0 -0.140625 0.09375 -0.21875q0.09375 -0.078125 0.296875 -0.078125l0.484375 0l0 -3.515625q0 -0.609375 -0.453125 -1.03125q-0.4375 -0.421875 -1.1875 -0.421875q-0.5625 0 -0.984375 0.234375q-0.40625 0.21875 -1.1875 1.140625l0 3.59375l0.65625 0q0.203125 0 0.28125 0.078125q0.09375 0.078125 0.09375 0.21875q0 0.109375 -0.09375 0.203125q-0.078125 0.078125 -0.28125 0.078125l-1.875 0q-0.203125 0 -0.296875 -0.078125q-0.09375 -0.09375 -0.09375 -0.203125q0 -0.140625 0.09375 -0.21875q0.09375 -0.078125 0.296875 -0.078125l0.640625 0l0 -4.765625l-0.484375 0q-0.203125 0 -0.296875 -0.078125q-0.078125 -0.078125 -0.078125 -0.21875q0 -0.109375 0.078125 -0.1875q0.09375 -0.09375 0.296875 -0.09375l1.0625 0zm13.073242 -2.65625l0 8.0l0.765625 0q0.203125 0 0.296875 0.078125q0.09375 0.078125 0.09375 0.21875q0 0.109375 -0.09375 0.203125q-0.09375 0.078125 -0.296875 0.078125l-1.34375 0l0 -1.140625q-1.0 1.359375 -2.546875 1.359375q-0.765625 0 -1.484375 -0.40625q-0.71875 -0.421875 -1.140625 -1.1875q-0.40625 -0.765625 -0.40625 -1.578125q0 -0.8125 0.40625 -1.578125q0.421875 -0.765625 1.140625 -1.171875q0.71875 -0.421875 1.5 -0.421875q1.5 0 2.53125 1.359375l0 -3.234375l-0.765625 0q-0.21875 0 -0.3125 -0.078125q-0.078125 -0.078125 -0.078125 -0.21875q0 -0.125 0.078125 -0.203125q0.09375 -0.078125 0.3125 -0.078125l1.34375 0zm-0.578125 5.625q0 -1.09375 -0.75 -1.84375q-0.734375 -0.75 -1.75 -0.75q-1.03125 0 -1.765625 0.75q-0.734375 0.75 -0.734375 1.84375q0 1.09375 0.734375 1.859375q0.734375 0.75 1.765625 0.75q1.015625 0 1.75 -0.75q0.75 -0.765625 0.75 -1.859375zm7.823242 2.953125l0 -0.828125q-1.265625 1.046875 -2.6875 1.046875q-1.03125 0 -1.609375 -0.515625q-0.578125 -0.53125 -0.578125 -1.28125q0 -0.828125 0.765625 -1.453125q0.765625 -0.625 2.234375 -0.625q0.390625 0 0.859375 0.046875q0.46875 0.046875 1.015625 0.15625l0 -0.921875q0 -0.46875 -0.4375 -0.8125q-0.4375 -0.359375 -1.3125 -0.359375q-0.671875 0 -1.890625 0.390625q-0.21875 0.0625 -0.28125 0.0625q-0.109375 0 -0.1875 -0.078125q-0.078125 -0.078125 -0.078125 -0.203125q0 -0.109375 0.078125 -0.1875q0.09375 -0.09375 0.765625 -0.28125q1.0625 -0.28125 1.609375 -0.28125q1.09375 0 1.703125 0.546875q0.609375 0.53125 0.609375 1.203125l0 3.796875l0.765625 0q0.203125 0 0.296875 0.078125q0.09375 0.078125 0.09375 0.21875q0 0.109375 -0.09375 0.203125q-0.09375 0.078125 -0.296875 0.078125l-1.34375 0zm0 -2.859375q-0.40625 -0.109375 -0.859375 -0.15625q-0.453125 -0.0625 -0.953125 -0.0625q-1.25 0 -1.953125 0.53125q-0.53125 0.40625 -0.53125 0.96875q0 0.515625 0.40625 0.875q0.40625 0.359375 1.1875 0.359375q0.734375 0 1.375 -0.296875q0.640625 -0.296875 1.328125 -0.953125l0 -1.265625zm5.557617 -3.0625l3.125 0q0.203125 0 0.28125 0.09375q0.09375 0.078125 0.09375 0.203125q0 0.125 -0.09375 0.203125q-0.078125 0.078125 -0.28125 0.078125l-3.125 0l0 3.828125q0 0.5 0.40625 0.84375q0.40625 0.328125 1.171875 0.328125q0.578125 0 1.25 -0.171875q0.6875 -0.1875 1.0625 -0.40625q0.140625 -0.078125 0.21875 -0.078125q0.109375 0 0.1875 0.09375q0.09375 0.078125 0.09375 0.1875q0 0.109375 -0.09375 0.1875q-0.21875 0.234375 -1.0625 0.5q-0.84375 0.25 -1.609375 0.25q-1.015625 0 -1.609375 -0.46875q-0.59375 -0.46875 -0.59375 -1.265625l0 -3.828125l-1.0625 0q-0.203125 0 -0.296875 -0.078125q-0.078125 -0.078125 -0.078125 -0.21875q0 -0.109375 0.078125 -0.1875q0.09375 -0.09375 0.296875 -0.09375l1.0625 0l0 -1.6875q0 -0.21875 0.078125 -0.296875q0.09375 -0.09375 0.21875 -0.09375q0.125 0 0.203125 0.09375q0.078125 0.078125 0.078125 0.296875l0 1.6875zm11.245117 5.921875l0 -0.828125q-1.265625 1.046875 -2.6875 1.046875q-1.03125 0 -1.609375 -0.515625q-0.578125 -0.53125 -0.578125 -1.28125q0 -0.828125 0.765625 -1.453125q0.765625 -0.625 2.234375 -0.625q0.390625 0 0.859375 0.046875q0.46875 0.046875 1.015625 0.15625l0 -0.921875q0 -0.46875 -0.4375 -0.8125q-0.4375 -0.359375 -1.3125 -0.359375q-0.671875 0 -1.890625 0.390625q-0.21875 0.0625 -0.28125 0.0625q-0.109375 0 -0.1875 -0.078125q-0.078125 -0.078125 -0.078125 -0.203125q0 -0.109375 0.078125 -0.1875q0.09375 -0.09375 0.765625 -0.28125q1.0625 -0.28125 1.609375 -0.28125q1.09375 0 1.703125 0.546875q0.609375 0.53125 0.609375 1.203125l0 3.796875l0.765625 0q0.203125 0 0.296875 0.078125q0.09375 0.078125 0.09375 0.21875q0 0.109375 -0.09375 0.203125q-0.09375 0.078125 -0.296875 0.078125l-1.34375 0zm0 -2.859375q-0.40625 -0.109375 -0.859375 -0.15625q-0.453125 -0.0625 -0.953125 -0.0625q-1.25 0 -1.953125 0.53125q-0.53125 0.40625 -0.53125 0.96875q0 0.515625 0.40625 0.875q0.40625 0.359375 1.1875 0.359375q0.734375 0 1.375 -0.296875q0.640625 -0.296875 1.328125 -0.953125l0 -1.265625zm10.557617 6.6874695l-7.625 0q-0.21875 0 -0.3125 -0.078125q-0.078125 -0.078125 -0.078125 -0.203125q0 -0.125 0.078125 -0.203125q0.09375 -0.078125 0.3125 -0.078125l7.625 0q0.21875 0 0.296875 0.078125q0.09375 0.078125 0.09375 0.203125q0 0.125 -0.09375 0.203125q-0.078125 0.078125 -0.296875 0.078125zm7.401367 -12.4062195l0 8.0l0.765625 0q0.203125 0 0.296875 0.078125q0.09375 0.078125 0.09375 0.21875q0 0.109375 -0.09375 0.203125q-0.09375 0.078125 -0.296875 0.078125l-1.34375 0l0 -1.140625q-1.0 1.359375 -2.546875 1.359375q-0.765625 0 -1.484375 -0.40625q-0.71875 -0.421875 -1.140625 -1.1875q-0.40625 -0.765625 -0.40625 -1.578125q0 -0.8125 0.40625 -1.578125q0.421875 -0.765625 1.140625 -1.171875q0.71875 -0.421875 1.5 -0.421875q1.5 0 2.53125 1.359375l0 -3.234375l-0.765625 0q-0.21875 0 -0.3125 -0.078125q-0.078125 -0.078125 -0.078125 -0.21875q0 -0.125 0.078125 -0.203125q0.09375 -0.078125 0.3125 -0.078125l1.34375 0zm-0.578125 5.625q0 -1.09375 -0.75 -1.84375q-0.734375 -0.75 -1.75 -0.75q-1.03125 0 -1.765625 0.75q-0.734375 0.75 -0.734375 1.84375q0 1.09375 0.734375 1.859375q0.734375 0.75 1.765625 0.75q1.015625 0 1.75 -0.75q0.75 -0.765625 0.75 -1.859375zm7.823242 2.953125l0 -0.828125q-1.265625 1.046875 -2.6875 1.046875q-1.03125 0 -1.609375 -0.515625q-0.578125 -0.53125 -0.578125 -1.28125q0 -0.828125 0.765625 -1.453125q0.765625 -0.625 2.234375 -0.625q0.390625 0 0.859375 0.046875q0.46875 0.046875 1.015625 0.15625l0 -0.921875q0 -0.46875 -0.4375 -0.8125q-0.4375 -0.359375 -1.3125 -0.359375q-0.671875 0 -1.890625 0.390625q-0.21875 0.0625 -0.28125 0.0625q-0.109375 0 -0.1875 -0.078125q-0.078125 -0.078125 -0.078125 -0.203125q0 -0.109375 0.078125 -0.1875q0.09375 -0.09375 0.765625 -0.28125q1.0625 -0.28125 1.609375 -0.28125q1.09375 0 1.703125 0.546875q0.609375 0.53125 0.609375 1.203125l0 3.796875l0.765625 0q0.203125 0 0.296875 0.078125q0.09375 0.078125 0.09375 0.21875q0 0.109375 -0.09375 0.203125q-0.09375 0.078125 -0.296875 0.078125l-1.34375 0zm0 -2.859375q-0.40625 -0.109375 -0.859375 -0.15625q-0.453125 -0.0625 -0.953125 -0.0625q-1.25 0 -1.953125 0.53125q-0.53125 0.40625 -0.53125 0.96875q0 0.515625 0.40625 0.875q0.40625 0.359375 1.1875 0.359375q0.734375 0 1.375 -0.296875q0.640625 -0.296875 1.328125 -0.953125l0 -1.265625zm5.557617 -3.0625l3.125 0q0.203125 0 0.28125 0.09375q0.09375 0.078125 0.09375 0.203125q0 0.125 -0.09375 0.203125q-0.078125 0.078125 -0.28125 0.078125l-3.125 0l0 3.828125q0 0.5 0.40625 0.84375q0.40625 0.328125 1.171875 0.328125q0.578125 0 1.25 -0.171875q0.6875 -0.1875 1.0625 -0.40625q0.140625 -0.078125 0.21875 -0.078125q0.109375 0 0.1875 0.09375q0.09375 0.078125 0.09375 0.1875q0 0.109375 -0.09375 0.1875q-0.21875 0.234375 -1.0625 0.5q-0.84375 0.25 -1.609375 0.25q-1.015625 0 -1.609375 -0.46875q-0.59375 -0.46875 -0.59375 -1.265625l0 -3.828125l-1.0625 0q-0.203125 0 -0.296875 -0.078125q-0.078125 -0.078125 -0.078125 -0.21875q0 -0.109375 0.078125 -0.1875q0.09375 -0.09375 0.296875 -0.09375l1.0625 0l0 -1.6875q0 -0.21875 0.078125 -0.296875q0.09375 -0.09375 0.21875 -0.09375q0.125 0 0.203125 0.09375q0.078125 0.078125 0.078125 0.296875l0 1.6875zm12.698242 3.09375l-5.859375 0q0.15625 1.125 0.9375 1.8125q0.78125 0.671875 1.9375 0.671875q0.640625 0 1.34375 -0.203125q0.703125 -0.21875 1.15625 -0.578125q0.125 -0.09375 0.21875 -0.09375q0.109375 0 0.1875 0.09375q0.09375 0.078125 0.09375 0.1875q0 0.109375 -0.109375 0.21875q-0.328125 0.34375 -1.171875 0.640625q-0.84375 0.296875 -1.71875 0.296875q-1.484375 0 -2.46875 -0.953125q-0.984375 -0.96875 -0.984375 -2.34375q0 -1.25 0.921875 -2.140625q0.9375 -0.90625 2.296875 -0.90625q1.40625 0 2.3125 0.921875q0.921875 0.921875 0.90625 2.375zm-0.578125 -0.578125q-0.171875 -0.953125 -0.90625 -1.546875q-0.734375 -0.59375 -1.734375 -0.59375q-1.0 0 -1.734375 0.59375q-0.71875 0.578125 -0.890625 1.546875l5.265625 0z" fill-rule="nonzero"/><path fill="#ff9900" d="m318.47507 95.93438l146.36221 0l0 68.251976l-146.36221 0z" fill-rule="evenodd"/><path stroke="#000000" stroke-width="1.0" stroke-linejoin="round" stroke-linecap="butt" d="m318.47507 95.93438l146.36221 0l0 68.251976l-146.36221 0z" fill-rule="evenodd"/><path fill="#000000" d="m366.0384 136.98036l0 -13.359375l4.03125 0l2.421875 9.109375l2.390625 -9.109375l4.046875 0l0 13.359375l-2.5 0l0 -10.515625l-2.65625 10.515625l-2.59375 0l-2.640625 -10.515625l0 10.515625l-2.5 0zm14.962677 -4.96875q0 -1.28125 0.625 -2.46875q0.625 -1.203125 1.78125 -1.828125q1.15625 -0.625 2.578125 -0.625q2.1875 0 3.59375 1.421875q1.40625 1.421875 1.40625 3.609375q0 2.1875 -1.421875 3.640625q-1.421875 1.4375 -3.5625 1.4375q-1.328125 0 -2.546875 -0.59375q-1.203125 -0.609375 -1.828125 -1.765625q-0.625 -1.171875 -0.625 -2.828125zm2.625 0.125q0 1.453125 0.671875 2.21875q0.6875 0.75 1.6875 0.75q1.0 0 1.671875 -0.75q0.6875 -0.765625 0.6875 -2.234375q0 -1.421875 -0.6875 -2.1875q-0.671875 -0.765625 -1.671875 -0.765625q-1.0 0 -1.6875 0.765625q-0.671875 0.765625 -0.671875 2.203125zm18.239746 4.84375l-2.390625 0l0 -1.421875q-0.59375 0.828125 -1.40625 1.234375q-0.796875 0.40625 -1.609375 0.40625q-1.671875 0 -2.859375 -1.34375q-1.1875 -1.34375 -1.1875 -3.75q0 -2.453125 1.15625 -3.734375q1.15625 -1.28125 2.921875 -1.28125q1.625 0 2.8125 1.34375l0 -4.8125l2.5625 0l0 13.359375zm-6.84375 -5.046875q0 1.546875 0.4375 2.234375q0.609375 1.015625 1.71875 1.015625q0.890625 0 1.5 -0.75q0.625 -0.765625 0.625 -2.25q0 -1.671875 -0.609375 -2.40625q-0.59375 -0.734375 -1.53125 -0.734375q-0.90625 0 -1.53125 0.734375q-0.609375 0.71875 -0.609375 2.15625zm14.958466 1.96875l2.546875 0.421875q-0.484375 1.40625 -1.546875 2.140625q-1.0625 0.734375 -2.65625 0.734375q-2.515625 0 -3.734375 -1.65625q-0.953125 -1.3125 -0.953125 -3.328125q0 -2.40625 1.25 -3.765625q1.265625 -1.359375 3.1875 -1.359375q2.15625 0 3.40625 1.421875q1.25 1.421875 1.1875 4.375l-6.40625 0q0.03125 1.140625 0.609375 1.78125q0.59375 0.625 1.484375 0.625q0.59375 0 1.0 -0.328125q0.421875 -0.328125 0.625 -1.0625zm0.15625 -2.59375q-0.03125 -1.109375 -0.578125 -1.6875q-0.546875 -0.578125 -1.328125 -0.578125q-0.84375 0 -1.390625 0.609375q-0.546875 0.609375 -0.53125 1.65625l3.828125 0zm4.6257324 5.671875l0 -13.359375l2.5625 0l0 13.359375l-2.5625 0z" fill-rule="nonzero"/></g></svg>